<?xml version="1.0" encoding="UTF-8"?>
<svg xmlns="http://www.w3.org/2000/svg" width="128" height="128" viewBox="0 0 128 128" fill="none">
  <circle cx="64" cy="64" r="60" fill="#1a73e8" opacity="0.9"/>
  <path d="M64 28C53.5066 28 45 36.5066 45 47V57H40C37.2386 57 35 59.2386 35 62V94C35 96.7614 37.2386 99 40 99H88C90.7614 99 93 96.7614 93 94V62C93 59.2386 90.7614 57 88 57H83V47C83 36.5066 74.4934 28 64 28ZM53 57V47C53 40.9249 57.9249 36 64 36C70.0751 36 75 40.9249 75 47V57H53Z" fill="white"/>
  <path d="M64 70C60.6863 70 58 72.6863 58 76C58 78.2275 59.2644 80.1561 61.1212 81.1248L60 90H68L66.8788 81.1248C68.7356 80.1561 70 78.2275 70 76C70 72.6863 67.3137 70 64 70Z" fill="white"/>
</svg> 